<?xml version="1.0" standalone="no"?>
<!DOCTYPE svg PUBLIC "-//W3C//DTD SVG 20010904//EN"
 "http://www.w3.org/TR/2001/REC-SVG-20010904/DTD/svg10.dtd">
<svg version="1.0" xmlns="http://www.w3.org/2000/svg"
 width="700.000000pt" height="700.000000pt" viewBox="0 0 700.000000 700.000000"
 preserveAspectRatio="xMidYMid meet">
<metadata>
Created by potrace 1.14, written by Peter Selinger 2001-2017
</metadata>
<g transform="translate(0.000000,700.000000) scale(0.100000,-0.100000)"
fill="#000000" stroke="none">
<path d="M0 5803 l0 -1198 1100 1100 1100 1100 42 -40 c24 -22 99 -94 168
-160 116 -112 390 -370 523 -494 31 -30 61 -51 65 -47 4 5 -25 38 -65 75 -90
83 -349 328 -558 528 l-159 153 21 22 22 21 146 -139 c80 -76 203 -193 273
-258 70 -66 183 -173 251 -239 l124 -119 -1527 -1526 -1526 -1527 0 -1527 0
-1528 3500 0 3500 0 0 458 0 458 -781 779 -780 778 208 209 c114 114 212 208
218 208 5 0 263 -253 572 -562 l563 -563 0 65 1 65 -1443 1437 -1443 1437 210
210 c115 116 214 211 218 211 5 0 558 -548 1230 -1217 l1222 -1218 3 80 4 80
-726 720 -725 721 214 214 215 215 510 -510 510 -510 0 1618 0 1617 -3500 0
-3500 0 0 -1197z m2584 865 c139 -134 315 -303 392 -376 117 -112 121 -117 26
-31 -62 56 -115 100 -118 97 -3 -3 42 -50 100 -104 58 -54 103 -100 101 -103
-6 -5 -44 30 -457 423 -185 176 -335 322 -333 325 5 4 100 -84 369 -343 114
-109 209 -197 212 -194 4 4 -171 176 -526 515 -19 18 -31 33 -26 33 4 0 122
-109 260 -242z m-299 -4784 l70 -19 3 -69 c3 -63 1 -68 -15 -61 -121 51 -160
59 -268 60 -98 0 -115 -3 -151 -24 -58 -33 -88 -88 -82 -152 9 -86 51 -113
243 -153 177 -38 258 -85 308 -180 31 -60 31 -203 -1 -263 -32 -60 -86 -109
-151 -135 -50 -20 -73 -23 -211 -22 -135 0 -165 3 -235 25 l-80 24 -3 72 -3
72 63 -29 c87 -40 170 -60 253 -60 176 0 268 80 244 212 -15 87 -59 115 -248
157 -147 34 -212 63 -263 119 -93 103 -65 311 53 389 80 53 131 64 274 59 83
-2 155 -10 200 -22z m-785 -499 l0 -516 -67 3 -68 3 -3 500 c-1 275 0 506 3
513 3 8 27 12 70 12 l65 0 0 -515z m1230 135 l5 -375 26 -56 c40 -86 101 -119
217 -119 87 0 139 17 182 60 61 61 63 75 69 490 l6 375 68 3 68 3 -3 -388 c-3
-376 -4 -390 -26 -444 -32 -80 -88 -140 -164 -175 -60 -27 -70 -29 -198 -29
-125 0 -139 2 -190 26 -107 50 -163 123 -189 247 -7 33 -11 185 -11 408 l0
355 68 -3 67 -3 5 -375z"/>
</g>
</svg>
